<svg width="488" height="142" viewBox="0 0 488 142" fill="none" xmlns="http://www.w3.org/2000/svg">
<path d="M37.15 2.9H39.15V0.9H37.15V2.9ZM1.75 2.9V0.9H-0.25V2.9H1.75ZM1.75 56H-0.25V58H1.75V56ZM37.15 56V58H39.15V56H37.15ZM37.15 42.725H39.15V40.725H37.15V42.725ZM18.4 42.725H16.4V44.725H18.4V42.725ZM18.4 35.225V33.225H16.4V35.225H18.4ZM34.9 35.225V37.225H36.9V35.225H34.9ZM34.9 22.7H36.9V20.7H34.9V22.7ZM18.4 22.7H16.4V24.7H18.4V22.7ZM18.4 16.175V14.175H16.4V16.175H18.4ZM37.15 16.175V18.175H39.15V16.175H37.15ZM37.15 0.9H1.75V4.9H37.15V0.9ZM-0.25 2.9V56H3.75V2.9H-0.25ZM1.75 58H37.15V54H1.75V58ZM39.15 56V42.725H35.15V56H39.15ZM37.15 40.725H18.4V44.725H37.15V40.725ZM20.4 42.725V35.225H16.4V42.725H20.4ZM18.4 37.225H34.9V33.225H18.4V37.225ZM36.9 35.225V22.7H32.9V35.225H36.9ZM34.9 20.7H18.4V24.7H34.9V20.7ZM20.4 22.7V16.175H16.4V22.7H20.4ZM18.4 18.175H37.15V14.175H18.4V18.175ZM39.15 16.175V2.9H35.15V16.175H39.15ZM74.9248 56L73.3233 57.198L73.9232 58H74.9248V56ZM93.5248 56V58H97.5073L95.129 54.8056L93.5248 56ZM78.2248 35.45L76.5651 34.334L75.7752 35.5088L76.6206 36.6444L78.2248 35.45ZM92.8498 13.7L94.5095 14.816L96.6047 11.7H92.8498V13.7ZM74.5498 13.7V11.7H73.3801L72.8067 12.7195L74.5498 13.7ZM69.1498 23.3L67.5438 24.492L69.3814 26.9678L70.893 24.2805L69.1498 23.3ZM62.0248 13.7L63.6308 12.508L63.0311 11.7H62.0248V13.7ZM43.4248 13.7V11.7H39.4398L41.8212 14.8952L43.4248 13.7ZM58.3498 33.725L60.0371 34.7987L60.7774 33.6354L59.9534 32.5298L58.3498 33.725ZM44.1748 56L42.4875 54.9262L40.5315 58H44.1748V56ZM62.4748 56V58H63.648L64.2205 56.976L62.4748 56ZM67.7998 46.475L69.4013 45.277L67.5568 42.8112L66.0541 45.4991L67.7998 46.475ZM74.9248 58H93.5248V54H74.9248V58ZM95.129 54.8056L79.829 34.2556L76.6206 36.6444L91.9206 57.1944L95.129 54.8056ZM79.8845 36.566L94.5095 14.816L91.1901 12.584L76.5651 34.334L79.8845 36.566ZM92.8498 11.7H74.5498V15.7H92.8498V11.7ZM72.8067 12.7195L67.4067 22.3195L70.893 24.2805L76.293 14.6805L72.8067 12.7195ZM70.7558 22.108L63.6308 12.508L60.4188 14.892L67.5438 24.492L70.7558 22.108ZM62.0248 11.7H43.4248V15.7H62.0248V11.7ZM41.8212 14.8952L56.7462 34.9202L59.9534 32.5298L45.0284 12.5048L41.8212 14.8952ZM56.6625 32.6512L42.4875 54.9262L45.8621 57.0738L60.0371 34.7987L56.6625 32.6512ZM44.1748 58H62.4748V54H44.1748V58ZM64.2205 56.976L69.5455 47.451L66.0541 45.4991L60.7291 55.024L64.2205 56.976ZM66.1983 47.673L73.3233 57.198L76.5263 54.802L69.4013 45.277L66.1983 47.673ZM117.672 19.475H115.672L119.44 20.4108L117.672 19.475ZM117.672 13.7H119.672V11.7H117.672V13.7ZM101.022 13.7V11.7H99.0225V13.7H101.022ZM101.022 76.25H99.0225V78.25H101.022V76.25ZM117.672 76.25V78.25H119.672V76.25H117.672ZM117.672 50.225L119.44 49.2892L115.672 50.225H117.672ZM119.672 19.475V13.7H115.672V19.475H119.672ZM117.672 11.7H101.022V15.7H117.672V11.7ZM99.0225 13.7V76.25H103.022V13.7H99.0225ZM101.022 78.25H117.672V74.25H101.022V78.25ZM119.672 76.25V50.225H115.672V76.25H119.672ZM115.905 51.1608C118.318 55.7198 123.026 58.525 129.297 58.525V54.525C124.319 54.525 121.076 52.3802 119.44 49.2892L115.905 51.1608ZM129.297 58.525C134.755 58.525 139.683 56.2645 143.216 52.1002C146.734 47.9545 148.772 42.0455 148.772 34.85H144.772C144.772 41.3045 142.949 46.233 140.166 49.5123C137.4 52.773 133.59 54.525 129.297 54.525V58.525ZM148.772 34.85C148.772 27.6545 146.734 21.7455 143.216 17.5998C139.683 13.4355 134.755 11.175 129.297 11.175V15.175C133.59 15.175 137.4 16.927 140.166 20.1877C142.949 23.467 144.772 28.3955 144.772 34.85H148.772ZM129.297 11.175C123.026 11.175 118.318 13.9802 115.905 18.5392L119.44 20.4108C121.076 17.3198 124.319 15.175 129.297 15.175V11.175ZM127.897 34.85C127.897 36.7892 127.34 38.0475 126.646 38.8006C125.96 39.5448 124.978 39.975 123.747 39.975V43.975C125.967 43.975 128.06 43.1677 129.587 41.5119C131.105 39.865 131.897 37.5608 131.897 34.85H127.897ZM123.747 39.975C122.517 39.975 121.535 39.5448 120.849 38.8006C120.155 38.0475 119.597 36.7892 119.597 34.85H115.597C115.597 37.5608 116.39 39.865 117.908 41.5119C119.435 43.1677 121.528 43.975 123.747 43.975V39.975ZM119.597 34.85C119.597 32.9108 120.155 31.6525 120.849 30.8994C121.535 30.1552 122.517 29.725 123.747 29.725V25.725C121.528 25.725 119.435 26.5323 117.908 28.1881C116.39 29.835 115.597 32.1392 115.597 34.85H119.597ZM123.747 29.725C124.978 29.725 125.96 30.1552 126.646 30.8994C127.34 31.6525 127.897 32.9108 127.897 34.85H131.897C131.897 32.1392 131.105 29.835 129.587 28.1881C128.06 26.5323 125.967 25.725 123.747 25.725V29.725ZM155.749 56H153.749V58H155.749V56ZM172.399 56V58H174.399V56H172.399ZM172.399 0.499999H174.399V-1.5H172.399V0.499999ZM155.749 0.499999V-1.5H153.749V0.499999H155.749ZM155.749 58H172.399V54H155.749V58ZM174.399 56V0.499999H170.399V56H174.399ZM172.399 -1.5H155.749V2.5H172.399V-1.5ZM153.749 0.499999V56H157.749V0.499999H153.749ZM228.119 34.85C228.119 27.6008 225.528 21.6339 221.091 17.4886C216.671 13.3592 210.569 11.175 203.769 11.175V15.175C209.719 15.175 214.792 17.0783 218.36 20.4114C221.91 23.7286 224.119 28.5992 224.119 34.85H228.119ZM203.769 11.175C196.969 11.175 190.867 13.3592 186.447 17.4886C182.01 21.6339 179.419 27.6008 179.419 34.85H183.419C183.419 28.5992 185.628 23.7286 189.178 20.4114C192.746 17.0783 197.819 15.175 203.769 15.175V11.175ZM179.419 34.85C179.419 42.0992 182.01 48.0661 186.447 52.2114C190.867 56.3408 196.969 58.525 203.769 58.525V54.525C197.819 54.525 192.746 52.6217 189.178 49.2886C185.628 45.9714 183.419 41.1008 183.419 34.85H179.419ZM203.769 58.525C210.569 58.525 216.671 56.3408 221.091 52.2114C225.528 48.0661 228.119 42.0992 228.119 34.85H224.119C224.119 41.1008 221.91 45.9714 218.36 49.2886C214.792 52.6217 209.719 54.525 203.769 54.525V58.525ZM200.294 34.85C200.294 32.6602 200.849 31.3473 201.464 30.6168C202.056 29.9139 202.847 29.575 203.769 29.575V25.575C201.766 25.575 199.819 26.3611 198.405 28.0395C197.014 29.6902 196.294 32.0148 196.294 34.85H200.294ZM203.769 29.575C204.691 29.575 205.482 29.9139 206.074 30.6168C206.689 31.3473 207.244 32.6602 207.244 34.85H211.244C211.244 32.0148 210.524 29.6902 209.133 28.0395C207.719 26.3611 205.772 25.575 203.769 25.575V29.575ZM207.244 34.85C207.244 37.0398 206.689 38.3527 206.074 39.0832C205.482 39.7861 204.691 40.125 203.769 40.125V44.125C205.772 44.125 207.719 43.3389 209.133 41.6605C210.524 40.0098 211.244 37.6852 211.244 34.85H207.244ZM203.769 40.125C202.799 40.125 202.017 39.7795 201.442 39.0903C200.837 38.3656 200.294 37.0543 200.294 34.85H196.294C196.294 37.6707 196.988 39.9969 198.371 41.6534C199.783 43.3455 201.739 44.125 203.769 44.125V40.125ZM265.625 31.175V33.175H267.625V31.175H265.625ZM265.625 13.4H267.625V11.4H265.625V13.4ZM251.75 21.5H249.75V27.8565L253.389 22.6452L251.75 21.5ZM251.75 13.7H253.75V11.7H251.75V13.7ZM235.1 13.7V11.7H233.1V13.7H235.1ZM235.1 56H233.1V58H235.1V56ZM251.75 56V58H253.75V56H251.75ZM253.75 38.675C253.75 36.1474 254.423 34.998 255.275 34.3594C256.269 33.6137 257.995 33.175 260.9 33.175V29.175C257.804 29.175 254.955 29.5988 252.875 31.1594C250.651 32.827 249.75 35.4276 249.75 38.675H253.75ZM260.9 33.175H265.625V29.175H260.9V33.175ZM267.625 31.175V13.4H263.625V31.175H267.625ZM265.625 11.4C259.317 11.4 253.668 15.2597 250.11 20.3548L253.389 22.6452C256.431 18.2903 260.982 15.4 265.625 15.4V11.4ZM253.75 21.5V13.7H249.75V21.5H253.75ZM251.75 11.7H235.1V15.7H251.75V11.7ZM233.1 13.7V56H237.1V13.7H233.1ZM235.1 58H251.75V54H235.1V58ZM253.75 56V38.675H249.75V56H253.75ZM297.934 30.5V32.5H299.934V30.5H297.934ZM288.034 30.5L286.066 30.1467L285.643 32.5H288.034V30.5ZM313.909 40.775L315.871 41.1672L316.349 38.775H313.909V40.775ZM296.284 40.775V38.775H295.015L294.475 39.9234L296.284 40.775ZM287.884 37.775V35.775H285.776L285.887 37.8801L287.884 37.775ZM314.584 37.775V39.775H316.319L316.564 38.0578L314.584 37.775ZM293.209 28.225C294.111 28.225 294.812 28.4737 295.245 28.8224C295.619 29.1247 295.934 29.6076 295.934 30.5H299.934C299.934 28.4674 299.125 26.8128 297.755 25.7088C296.444 24.6513 294.783 24.225 293.209 24.225V28.225ZM297.934 28.5H288.034V32.5H297.934V28.5ZM290.003 30.8533C290.2 29.7541 290.605 29.1643 291.025 28.829C291.459 28.4831 292.139 28.225 293.209 28.225V24.225C291.505 24.225 289.86 24.6419 288.531 25.7023C287.189 26.7732 286.394 28.3209 286.066 30.1467L290.003 30.8533ZM313.909 38.775H296.284V42.775H313.909V38.775ZM294.475 39.9234C294.273 40.3519 294.029 40.6678 293.744 40.8763C293.483 41.0675 293.078 41.25 292.384 41.25V45.25C293.866 45.25 295.111 44.8325 296.106 44.105C297.077 43.3947 297.696 42.4731 298.094 41.6266L294.475 39.9234ZM292.384 41.25C291.611 41.25 291.132 41.0515 290.805 40.7176C290.453 40.3571 289.98 39.533 289.882 37.6699L285.887 37.8801C286.014 40.292 286.666 42.2054 287.945 43.5137C289.25 44.8485 290.908 45.25 292.384 45.25V41.25ZM287.884 39.775H314.584V35.775H287.884V39.775ZM316.564 38.0578C316.729 36.9029 316.809 35.6076 316.809 34.475H312.809C312.809 35.4424 312.74 36.5471 312.604 37.4922L316.564 38.0578ZM316.809 34.475C316.809 27.3722 314.41 21.4988 310.148 17.4046C305.897 13.321 299.97 11.175 293.209 11.175V15.175C299.124 15.175 303.996 17.0415 307.377 20.2892C310.746 23.5262 312.809 28.3027 312.809 34.475H316.809ZM293.209 11.175C286.439 11.175 280.507 13.3653 276.258 17.5201C272.002 21.6822 269.609 27.6452 269.609 34.85H273.609C273.609 28.5548 275.68 23.6803 279.055 20.3799C282.437 17.0722 287.305 15.175 293.209 15.175V11.175ZM269.609 34.85C269.609 42.0548 272.002 48.0178 276.258 52.1799C280.507 56.3347 286.439 58.525 293.209 58.525V54.525C287.305 54.525 282.437 52.6278 279.055 49.3201C275.68 46.0197 273.609 41.1452 273.609 34.85H269.609ZM293.209 58.525C304.722 58.525 313.866 51.1886 315.871 41.1672L311.948 40.3828C310.353 48.3614 302.997 54.525 293.209 54.525V58.525ZM337.319 16.1H335.319V18.1H337.319V16.1ZM351.269 16.1H353.269V14.1H351.269V16.1ZM351.269 56H349.269V58H351.269V56ZM367.919 56V58H369.919V56H367.919ZM367.919 16.1V14.1H365.919V16.1H367.919ZM382.019 16.1V18.1H384.019V16.1H382.019ZM382.019 2.9H384.019V0.9H382.019V2.9ZM337.319 2.9V0.9H335.319V2.9H337.319ZM337.319 18.1H351.269V14.1H337.319V18.1ZM349.269 16.1V56H353.269V16.1H349.269ZM351.269 58H367.919V54H351.269V58ZM369.919 56V16.1H365.919V56H369.919ZM367.919 18.1H382.019V14.1H367.919V18.1ZM384.019 16.1V2.9H380.019V16.1H384.019ZM382.019 0.9H337.319V4.9H382.019V0.9ZM335.319 2.9V16.1H339.319V2.9H335.319ZM390.285 56H388.285V58H390.285V56ZM406.935 56V58H408.935V56H406.935ZM418.785 56H416.785V58H418.785V56ZM435.36 56V58H437.36V56H435.36ZM406.935 20.15H404.935V26.8702L408.61 21.2436L406.935 20.15ZM406.935 0.499999H408.935V-1.5H406.935V0.499999ZM390.285 0.499999V-1.5H388.285V0.499999H390.285ZM390.285 58H406.935V54H390.285V58ZM408.935 56V33.575H404.935V56H408.935ZM408.935 33.575C408.935 31.9091 409.395 30.8046 410 30.1385C410.584 29.4958 411.492 29.05 412.86 29.05V25.05C410.553 25.05 408.499 25.8417 407.039 27.449C405.6 29.0329 404.935 31.1909 404.935 33.575H408.935ZM412.86 29.05C414.181 29.05 415.098 29.4901 415.698 30.1452C416.316 30.8188 416.785 31.9258 416.785 33.575H420.785C420.785 31.1742 420.092 29.0187 418.647 27.4423C417.185 25.8474 415.139 25.05 412.86 25.05V29.05ZM416.785 33.575V56H420.785V33.575H416.785ZM418.785 58H435.36V54H418.785V58ZM437.36 56V31.475H433.36V56H437.36ZM437.36 31.475C437.36 25.6735 435.851 20.6523 432.823 17.0455C429.76 13.3954 425.312 11.4 419.91 11.4V15.4C424.259 15.4 427.535 16.9671 429.759 19.617C432.02 22.3102 433.36 26.3265 433.36 31.475H437.36ZM419.91 11.4C412.79 11.4 407.99 14.8768 405.261 19.0564L408.61 21.2436C410.68 18.0732 414.28 15.4 419.91 15.4V11.4ZM408.935 20.15V0.499999H404.935V20.15H408.935ZM406.935 -1.5H390.285V2.5H406.935V-1.5ZM388.285 0.499999V56H392.285V0.499999H388.285ZM470.405 30.5V32.5H472.405V30.5H470.405ZM460.505 30.5L458.537 30.1467L458.114 32.5H460.505V30.5ZM486.38 40.775L488.341 41.1672L488.82 38.775H486.38V40.775ZM468.755 40.775V38.775H467.486L466.945 39.9234L468.755 40.775ZM460.355 37.775V35.775H458.247L458.358 37.8801L460.355 37.775ZM487.055 37.775V39.775H488.79L489.035 38.0578L487.055 37.775ZM465.68 28.225C466.581 28.225 467.283 28.4737 467.715 28.8224C468.09 29.1247 468.405 29.6076 468.405 30.5H472.405C472.405 28.4674 471.595 26.8128 470.226 25.7088C468.915 24.6513 467.254 24.225 465.68 24.225V28.225ZM470.405 28.5H460.505V32.5H470.405V28.5ZM462.474 30.8533C462.671 29.7541 463.076 29.1643 463.496 28.829C463.93 28.4831 464.61 28.225 465.68 28.225V24.225C463.975 24.225 462.33 24.6419 461.001 25.7023C459.659 26.7732 458.864 28.3209 458.537 30.1467L462.474 30.8533ZM486.38 38.775H468.755V42.775H486.38V38.775ZM466.945 39.9234C466.744 40.3519 466.5 40.6678 466.215 40.8763C465.954 41.0675 465.549 41.25 464.855 41.25V45.25C466.336 45.25 467.582 44.8325 468.576 44.105C469.548 43.3947 470.166 42.4731 470.565 41.6266L466.945 39.9234ZM464.855 41.25C464.082 41.25 463.602 41.0515 463.276 40.7176C462.923 40.3571 462.45 39.533 462.352 37.6699L458.358 37.8801C458.485 40.292 459.137 42.2054 460.416 43.5137C461.72 44.8485 463.378 45.25 464.855 45.25V41.25ZM460.355 39.775H487.055V35.775H460.355V39.775ZM489.035 38.0578C489.2 36.9029 489.28 35.6076 489.28 34.475H485.28C485.28 35.4424 485.21 36.5471 485.075 37.4922L489.035 38.0578ZM489.28 34.475C489.28 27.3722 486.881 21.4988 482.619 17.4046C478.368 13.321 472.44 11.175 465.68 11.175V15.175C471.595 15.175 476.467 17.0415 479.848 20.2892C483.217 23.5262 485.28 28.3027 485.28 34.475H489.28ZM465.68 11.175C458.909 11.175 452.977 13.3653 448.729 17.5201C444.472 21.6822 442.08 27.6452 442.08 34.85H446.08C446.08 28.5548 448.15 23.6803 451.525 20.3799C454.908 17.0722 459.776 15.175 465.68 15.175V11.175ZM442.08 34.85C442.08 42.0548 444.472 48.0178 448.729 52.1799C452.977 56.3347 458.909 58.525 465.68 58.525V54.525C459.776 54.525 454.908 52.6278 451.525 49.3201C448.15 46.0197 446.08 41.1452 446.08 34.85H442.08ZM465.68 58.525C477.192 58.525 486.337 51.1886 488.341 41.1672L484.419 40.3828C482.823 48.3614 475.468 54.525 465.68 54.525V58.525ZM52.15 126.975L53.8827 127.974L54.15 127.51V126.975H52.15ZM52.15 110.325H54.15V108.325H52.15V110.325ZM25.075 110.325V108.325H23.075V110.325H25.075ZM25.075 122.1H23.075V124.1H25.075V122.1ZM38.35 122.1L39.95 123.3L42.35 120.1H38.35V122.1ZM34.3 106.05L32.6075 107.116L33.1958 108.05H34.3V106.05ZM51.85 106.05V108.05H54.1474L53.8309 105.775L51.85 106.05ZM27.1 85.375C18.3118 85.375 11.0547 88.3354 5.99605 93.5477C0.945817 98.7513 -1.75 106.03 -1.75 114.375H2.25C2.25 106.895 4.65418 100.674 8.86645 96.3335C13.0703 92.0021 19.2382 89.375 27.1 89.375V85.375ZM-1.75 114.375C-1.75 122.724 0.96726 130.004 6.04714 135.207C11.1343 140.417 18.4272 143.375 27.25 143.375V139.375C19.3478 139.375 13.1407 136.746 8.90911 132.412C4.67024 128.071 2.25 121.851 2.25 114.375H-1.75ZM27.25 143.375C41.923 143.375 49.9847 134.736 53.8827 127.974L50.4173 125.976C46.9653 131.964 40.027 139.375 27.25 139.375V143.375ZM54.15 126.975V110.325H50.15V126.975H54.15ZM52.15 108.325H25.075V112.325H52.15V108.325ZM23.075 110.325V122.1H27.075V110.325H23.075ZM25.075 124.1H38.35V120.1H25.075V124.1ZM36.75 120.9C34.6743 123.668 32.2073 124.75 29.05 124.75V128.75C33.3927 128.75 37.0757 127.132 39.95 123.3L36.75 120.9ZM29.05 124.75C25.2754 124.75 22.9175 123.801 21.4719 122.279C20.0069 120.737 19.125 118.238 19.125 114.375H15.125C15.125 118.762 16.1181 122.451 18.5719 125.034C21.045 127.637 24.6496 128.75 29.05 128.75V124.75ZM19.125 114.375C19.125 111.167 19.9447 108.769 21.2607 107.207C22.5381 105.691 24.4594 104.75 27.175 104.75V100.75C23.4406 100.75 20.3369 102.096 18.2018 104.63C16.1053 107.118 15.125 110.533 15.125 114.375H19.125ZM27.175 104.75C30.1191 104.75 31.7859 105.811 32.6075 107.116L35.9925 104.984C34.2641 102.239 31.1309 100.75 27.175 100.75V104.75ZM34.3 108.05H51.85V104.05H34.3V108.05ZM53.8309 105.775C52.9757 99.6248 50.0604 94.4728 45.3915 90.8805C40.7422 87.3034 34.4916 85.375 27.1 85.375V89.375C33.8084 89.375 39.1453 91.1216 42.9523 94.0507C46.7396 96.9647 49.1493 101.15 49.8691 106.325L53.8309 105.775ZM92.4215 116.175V118.175H94.4215V116.175H92.4215ZM92.4215 98.4H94.4215V96.4H92.4215V98.4ZM78.5465 106.5H76.5465V112.857L80.1862 107.645L78.5465 106.5ZM78.5465 98.7H80.5465V96.7H78.5465V98.7ZM61.8965 98.7V96.7H59.8965V98.7H61.8965ZM61.8965 141H59.8965V143H61.8965V141ZM78.5465 141V143H80.5465V141H78.5465ZM80.5465 123.675C80.5465 121.147 81.22 119.998 82.0715 119.359C83.0657 118.614 84.7916 118.175 87.6965 118.175V114.175C84.6013 114.175 81.7523 114.599 79.6715 116.159C77.448 117.827 76.5465 120.428 76.5465 123.675H80.5465ZM87.6965 118.175H92.4215V114.175H87.6965V118.175ZM94.4215 116.175V98.4H90.4215V116.175H94.4215ZM92.4215 96.4C86.1143 96.4 80.4653 100.26 76.9068 105.355L80.1862 107.645C83.2277 103.29 87.7786 100.4 92.4215 100.4V96.4ZM80.5465 106.5V98.7H76.5465V106.5H80.5465ZM78.5465 96.7H61.8965V100.7H78.5465V96.7ZM59.8965 98.7V141H63.8965V98.7H59.8965ZM61.8965 143H78.5465V139H61.8965V143ZM80.5465 141V123.675H76.5465V141H80.5465ZM124.731 115.5V117.5H126.731V115.5H124.731ZM114.831 115.5L112.863 115.147L112.44 117.5H114.831V115.5ZM140.706 125.775L142.667 126.167L143.146 123.775H140.706V125.775ZM123.081 125.775V123.775H121.812L121.272 124.923L123.081 125.775ZM114.681 122.775V120.775H112.573L112.684 122.88L114.681 122.775ZM141.381 122.775V124.775H143.116L143.361 123.058L141.381 122.775ZM120.006 113.225C120.908 113.225 121.609 113.474 122.041 113.822C122.416 114.125 122.731 114.608 122.731 115.5H126.731C126.731 113.467 125.921 111.813 124.552 110.709C123.241 109.651 121.58 109.225 120.006 109.225V113.225ZM124.731 113.5H114.831V117.5H124.731V113.5ZM116.8 115.853C116.997 114.754 117.402 114.164 117.822 113.829C118.256 113.483 118.936 113.225 120.006 113.225V109.225C118.302 109.225 116.657 109.642 115.328 110.702C113.985 111.773 113.19 113.321 112.863 115.147L116.8 115.853ZM140.706 123.775H123.081V127.775H140.706V123.775ZM121.272 124.923C121.07 125.352 120.826 125.668 120.541 125.876C120.28 126.068 119.875 126.25 119.181 126.25V130.25C120.663 130.25 121.908 129.832 122.903 129.105C123.874 128.395 124.493 127.473 124.891 126.627L121.272 124.923ZM119.181 126.25C118.408 126.25 117.928 126.051 117.602 125.718C117.25 125.357 116.777 124.533 116.678 122.67L112.684 122.88C112.811 125.292 113.463 127.205 114.742 128.514C116.047 129.849 117.704 130.25 119.181 130.25V126.25ZM114.681 124.775H141.381V120.775H114.681V124.775ZM143.361 123.058C143.526 121.903 143.606 120.608 143.606 119.475H139.606C139.606 120.442 139.536 121.547 139.401 122.492L143.361 123.058ZM143.606 119.475C143.606 112.372 141.207 106.499 136.945 102.405C132.694 98.321 126.766 96.175 120.006 96.175V100.175C125.921 100.175 130.793 102.042 134.174 105.289C137.543 108.526 139.606 113.303 139.606 119.475H143.606ZM120.006 96.175C113.235 96.175 107.304 98.3653 103.055 102.52C98.7986 106.682 96.4062 112.645 96.4062 119.85H100.406C100.406 113.555 102.476 108.68 105.851 105.38C109.234 102.072 114.102 100.175 120.006 100.175V96.175ZM96.4062 119.85C96.4062 127.055 98.7986 133.018 103.055 137.18C107.304 141.335 113.235 143.525 120.006 143.525V139.525C114.102 139.525 109.234 137.628 105.851 134.32C102.476 131.02 100.406 126.145 100.406 119.85H96.4062ZM120.006 143.525C131.518 143.525 140.663 136.189 142.667 126.167L138.745 125.383C137.149 133.361 129.794 139.525 120.006 139.525V143.525ZM177.547 135.225H179.547L175.779 134.289L177.547 135.225ZM177.547 141H175.547V143H177.547V141ZM194.122 141V143H196.122V141H194.122ZM194.122 98.7H196.122V96.7H194.122V98.7ZM177.547 98.7V96.7H175.547V98.7H177.547ZM177.547 104.475L175.779 105.411L179.547 104.475H177.547ZM146.372 119.85C146.372 127.045 148.411 132.954 151.928 137.1C155.462 141.264 160.39 143.525 165.847 143.525V139.525C161.554 139.525 157.745 137.773 154.978 134.512C152.196 131.233 150.372 126.305 150.372 119.85H146.372ZM165.847 143.525C172.105 143.525 176.895 140.73 179.315 136.161L175.779 134.289C174.149 137.37 170.839 139.525 165.847 139.525V143.525ZM175.547 135.225V141H179.547V135.225H175.547ZM177.547 143H194.122V139H177.547V143ZM196.122 141V98.7H192.122V141H196.122ZM194.122 96.7H177.547V100.7H194.122V96.7ZM175.547 98.7V104.475H179.547V98.7H175.547ZM179.315 103.539C176.895 98.9696 172.105 96.175 165.847 96.175V100.175C170.839 100.175 174.149 102.33 175.779 105.411L179.315 103.539ZM165.847 96.175C160.39 96.175 155.462 98.4355 151.928 102.6C148.411 106.745 146.372 112.655 146.372 119.85H150.372C150.372 113.395 152.196 108.467 154.978 105.188C157.745 101.927 161.554 100.175 165.847 100.175V96.175ZM175.547 119.85C175.547 121.789 174.99 123.048 174.295 123.801C173.609 124.545 172.628 124.975 171.397 124.975V128.975C173.616 128.975 175.71 128.168 177.236 126.512C178.755 124.865 179.547 122.561 179.547 119.85H175.547ZM171.397 124.975C170.166 124.975 169.185 124.545 168.499 123.801C167.805 123.048 167.247 121.789 167.247 119.85H163.247C163.247 122.561 164.04 124.865 165.558 126.512C167.084 128.168 169.178 128.975 171.397 128.975V124.975ZM167.247 119.85C167.247 117.911 167.805 116.652 168.499 115.899C169.185 115.155 170.166 114.725 171.397 114.725V110.725C169.178 110.725 167.084 111.532 165.558 113.188C164.04 114.835 163.247 117.139 163.247 119.85H167.247ZM171.397 114.725C172.628 114.725 173.609 115.155 174.295 115.899C174.99 116.652 175.547 117.911 175.547 119.85H179.547C179.547 117.139 178.755 114.835 177.236 113.188C175.71 111.532 173.616 110.725 171.397 110.725V114.725ZM231.674 141V143H233.674V141H231.674ZM231.674 126.825H233.674V124.825H231.674V126.825ZM224.624 112.575V110.575H222.624V112.575H224.624ZM231.524 112.575V114.575H233.524V112.575H231.524ZM231.524 98.7H233.524V96.7H231.524V98.7ZM224.624 98.7H222.624V100.7H224.624V98.7ZM224.624 88.5H226.624V86.5H224.624V88.5ZM207.974 88.5V86.5H205.974V88.5H207.974ZM207.974 98.7V100.7H209.974V98.7H207.974ZM202.724 98.7V96.7H200.724V98.7H202.724ZM202.724 112.575H200.724V114.575H202.724V112.575ZM207.974 112.575H209.974V110.575H207.974V112.575ZM205.974 123.675C205.974 130.62 207.971 135.589 211.653 138.772C215.279 141.907 220.188 143 225.374 143V139C220.659 139 216.868 137.993 214.269 135.746C211.726 133.548 209.974 129.855 209.974 123.675H205.974ZM225.374 143H231.674V139H225.374V143ZM233.674 141V126.825H229.674V141H233.674ZM231.674 124.825H227.699V128.825H231.674V124.825ZM227.699 124.825C226.828 124.825 226.674 124.635 226.718 124.676C226.789 124.744 226.624 124.682 226.624 123.975H222.624C222.624 125.218 222.908 126.581 223.973 127.586C225.011 128.565 226.395 128.825 227.699 128.825V124.825ZM226.624 123.975V112.575H222.624V123.975H226.624ZM224.624 114.575H231.524V110.575H224.624V114.575ZM233.524 112.575V98.7H229.524V112.575H233.524ZM231.524 96.7H224.624V100.7H231.524V96.7ZM226.624 98.7V88.5H222.624V98.7H226.624ZM224.624 86.5H207.974V90.5H224.624V86.5ZM205.974 88.5V98.7H209.974V88.5H205.974ZM207.974 96.7H202.724V100.7H207.974V96.7ZM200.724 98.7V112.575H204.724V98.7H200.724ZM202.724 114.575H207.974V110.575H202.724V114.575ZM205.974 112.575V123.675H209.974V112.575H205.974ZM274.909 111H272.909V113H274.909V111ZM274.909 101.25V99.25H272.909V101.25H274.909ZM258.259 87.9V85.9H256.259V87.9H258.259ZM258.259 141H256.259V143H258.259V141ZM274.909 141V143H276.909V141H274.909ZM274.909 124.125V122.125H272.909V124.125H274.909ZM276.909 111V101.25H272.909V111H276.909ZM274.909 103.25H279.634V99.25H274.909V103.25ZM279.634 103.25C281.18 103.25 281.868 103.648 282.19 103.981C282.524 104.326 282.809 104.958 282.809 106.125H286.809C286.809 104.367 286.381 102.561 285.065 101.2C283.737 99.827 281.838 99.25 279.634 99.25V103.25ZM282.809 106.125C282.809 107.292 282.524 107.924 282.19 108.269C281.868 108.602 281.18 109 279.634 109V113C281.838 113 283.737 112.423 285.065 111.05C286.381 109.689 286.809 107.883 286.809 106.125H282.809ZM279.634 109H274.909V113H279.634V109ZM303.684 106.125C303.684 100.332 301.83 95.2092 297.982 91.5426C294.142 87.884 288.553 85.9 281.509 85.9V89.9C287.815 89.9 292.313 91.666 295.223 94.4386C298.125 97.2033 299.684 101.193 299.684 106.125H303.684ZM281.509 85.9H258.259V89.9H281.509V85.9ZM256.259 87.9V141H260.259V87.9H256.259ZM258.259 143H274.909V139H258.259V143ZM276.909 141V124.125H272.909V141H276.909ZM274.909 126.125H281.509V122.125H274.909V126.125ZM281.509 126.125C288.6 126.125 294.178 123.945 297.995 120.245C301.807 116.549 303.684 111.506 303.684 106.125H299.684C299.684 110.569 298.148 114.526 295.21 117.373C292.277 120.217 287.768 122.125 281.509 122.125V126.125ZM310.715 141H308.715V143H310.715V141ZM327.365 141V143H329.365V141H327.365ZM327.365 85.5H329.365V83.5H327.365V85.5ZM310.715 85.5V83.5H308.715V85.5H310.715ZM310.715 143H327.365V139H310.715V143ZM329.365 141V85.5H325.365V141H329.365ZM327.365 83.5H310.715V87.5H327.365V83.5ZM308.715 85.5V141H312.715V85.5H308.715ZM365.56 135.225H367.56L363.792 134.289L365.56 135.225ZM365.56 141H363.56V143H365.56V141ZM382.135 141V143H384.135V141H382.135ZM382.135 98.7H384.135V96.7H382.135V98.7ZM365.56 98.7V96.7H363.56V98.7H365.56ZM365.56 104.475L363.792 105.411L367.56 104.475H365.56ZM334.385 119.85C334.385 127.045 336.423 132.954 339.941 137.1C343.474 141.264 348.403 143.525 353.86 143.525V139.525C349.567 139.525 345.758 137.773 342.991 134.512C340.209 131.233 338.385 126.305 338.385 119.85H334.385ZM353.86 143.525C360.118 143.525 364.908 140.73 367.327 136.161L363.792 134.289C362.161 137.37 358.852 139.525 353.86 139.525V143.525ZM363.56 135.225V141H367.56V135.225H363.56ZM365.56 143H382.135V139H365.56V143ZM384.135 141V98.7H380.135V141H384.135ZM382.135 96.7H365.56V100.7H382.135V96.7ZM363.56 98.7V104.475H367.56V98.7H363.56ZM367.327 103.539C364.908 98.9696 360.118 96.175 353.86 96.175V100.175C358.852 100.175 362.161 102.33 363.792 105.411L367.327 103.539ZM353.86 96.175C348.403 96.175 343.474 98.4355 339.941 102.6C336.423 106.745 334.385 112.655 334.385 119.85H338.385C338.385 113.395 340.209 108.467 342.991 105.188C345.758 101.927 349.567 100.175 353.86 100.175V96.175ZM363.56 119.85C363.56 121.789 363.002 123.048 362.308 123.801C361.622 124.545 360.641 124.975 359.41 124.975V128.975C361.629 128.975 363.723 128.168 365.249 126.512C366.767 124.865 367.56 122.561 367.56 119.85H363.56ZM359.41 124.975C358.179 124.975 357.198 124.545 356.512 123.801C355.817 123.048 355.26 121.789 355.26 119.85H351.26C351.26 122.561 352.052 124.865 353.571 126.512C355.097 128.168 357.191 128.975 359.41 128.975V124.975ZM355.26 119.85C355.26 117.911 355.817 116.652 356.512 115.899C357.198 115.155 358.179 114.725 359.41 114.725V110.725C357.191 110.725 355.097 111.532 353.571 113.188C352.052 114.835 351.26 117.139 351.26 119.85H355.26ZM359.41 114.725C360.641 114.725 361.622 115.155 362.308 115.899C363.002 116.652 363.56 117.911 363.56 119.85H367.56C367.56 117.139 366.767 114.835 365.249 113.188C363.723 111.532 361.629 110.725 359.41 110.725V114.725ZM433.786 123.975L435.754 124.334L436.184 121.975H433.786V123.975ZM416.161 123.975V121.975H414.668L414.244 123.407L416.161 123.975ZM416.161 115.725L414.244 116.293L414.668 117.725H416.161V115.725ZM433.786 115.725V117.725H436.184L435.754 115.366L433.786 115.725ZM389.111 119.85C389.111 127.055 391.504 133.018 395.76 137.18C400.009 141.335 405.941 143.525 412.711 143.525V139.525C406.807 139.525 401.939 137.628 398.557 134.32C395.181 131.02 393.111 126.145 393.111 119.85H389.111ZM412.711 143.525C418.551 143.525 423.778 141.789 427.836 138.459C431.899 135.125 434.666 130.297 435.754 124.334L431.819 123.616C430.882 128.753 428.549 132.7 425.299 135.366C422.045 138.036 417.747 139.525 412.711 139.525V143.525ZM433.786 121.975H416.161V125.975H433.786V121.975ZM414.244 123.407C414 124.228 413.711 124.678 413.454 124.916C413.245 125.108 412.942 125.275 412.336 125.275V129.275C413.831 129.275 415.14 128.804 416.169 127.853C417.149 126.947 417.722 125.747 418.079 124.543L414.244 123.407ZM412.336 125.275C411.778 125.275 411.315 125.072 410.897 124.408C410.411 123.638 409.986 122.212 409.986 119.85H405.986C405.986 122.588 406.461 124.874 407.513 126.542C408.632 128.316 410.345 129.275 412.336 129.275V125.275ZM409.986 119.85C409.986 117.488 410.411 116.062 410.897 115.292C411.315 114.628 411.778 114.425 412.336 114.425V110.425C410.345 110.425 408.632 111.384 407.513 113.158C406.461 114.826 405.986 117.112 405.986 119.85H409.986ZM412.336 114.425C412.942 114.425 413.245 114.592 413.454 114.784C413.711 115.022 414 115.472 414.244 116.293L418.079 115.157C417.722 113.953 417.149 112.753 416.169 111.847C415.14 110.896 413.831 110.425 412.336 110.425V114.425ZM416.161 117.725H433.786V113.725H416.161V117.725ZM435.754 115.366C434.666 109.403 431.899 104.575 427.836 101.241C423.778 97.9114 418.551 96.175 412.711 96.175V100.175C417.747 100.175 422.045 101.664 425.299 104.334C428.549 107 430.882 110.947 431.819 116.084L435.754 115.366ZM412.711 96.175C405.941 96.175 400.009 98.3653 395.76 102.52C391.504 106.682 389.111 112.645 389.111 119.85H393.111C393.111 113.555 395.181 108.68 398.557 105.38C401.939 102.072 406.807 100.175 412.711 100.175V96.175ZM466.889 115.5V117.5H468.889V115.5H466.889ZM456.989 115.5L455.021 115.147L454.599 117.5H456.989V115.5ZM482.864 125.775L484.826 126.167L485.304 123.775H482.864V125.775ZM465.239 125.775V123.775H463.97L463.43 124.923L465.239 125.775ZM456.839 122.775V120.775H454.731L454.842 122.88L456.839 122.775ZM483.539 122.775V124.775H485.274L485.519 123.058L483.539 122.775ZM462.164 113.225C463.066 113.225 463.767 113.474 464.2 113.822C464.574 114.125 464.889 114.608 464.889 115.5H468.889C468.889 113.467 468.08 111.813 466.711 110.709C465.399 109.651 463.738 109.225 462.164 109.225V113.225ZM466.889 113.5H456.989V117.5H466.889V113.5ZM458.958 115.853C459.155 114.754 459.56 114.164 459.981 113.829C460.414 113.483 461.094 113.225 462.164 113.225V109.225C460.46 109.225 458.815 109.642 457.486 110.702C456.144 111.773 455.349 113.321 455.021 115.147L458.958 115.853ZM482.864 123.775H465.239V127.775H482.864V123.775ZM463.43 124.923C463.228 125.352 462.984 125.668 462.699 125.876C462.438 126.068 462.033 126.25 461.339 126.25V130.25C462.821 130.25 464.066 129.832 465.061 129.105C466.032 128.395 466.651 127.473 467.049 126.627L463.43 124.923ZM461.339 126.25C460.566 126.25 460.087 126.051 459.76 125.718C459.408 125.357 458.935 124.533 458.837 122.67L454.842 122.88C454.969 125.292 455.621 127.205 456.9 128.514C458.205 129.849 459.863 130.25 461.339 130.25V126.25ZM456.839 124.775H483.539V120.775H456.839V124.775ZM485.519 123.058C485.684 121.903 485.764 120.608 485.764 119.475H481.764C481.764 120.442 481.695 121.547 481.56 122.492L485.519 123.058ZM485.764 119.475C485.764 112.372 483.365 106.499 479.103 102.405C474.852 98.321 468.925 96.175 462.164 96.175V100.175C468.079 100.175 472.951 102.042 476.332 105.289C479.701 108.526 481.764 113.303 481.764 119.475H485.764ZM462.164 96.175C455.394 96.175 449.462 98.3653 445.213 102.52C440.957 106.682 438.564 112.645 438.564 119.85H442.564C442.564 113.555 444.635 108.68 448.01 105.38C451.392 102.072 456.26 100.175 462.164 100.175V96.175ZM438.564 119.85C438.564 127.055 440.957 133.018 445.213 137.18C449.462 141.335 455.394 143.525 462.164 143.525V139.525C456.26 139.525 451.392 137.628 448.01 134.32C444.635 131.02 442.564 126.145 442.564 119.85H438.564ZM462.164 143.525C473.677 143.525 482.821 136.189 484.826 126.167L480.903 125.383C479.308 133.361 471.952 139.525 462.164 139.525V143.525Z" fill="#083C4C"/>
</svg>
